<svg xmlns="http://www.w3.org/2000/svg" viewBox="0 0 760.35 777.3"><defs><style>.cls-1{fill:gray;}</style></defs><title>1</title><g id="Слой_2" data-name="Слой 2"><g id="Слой_1-2" data-name="Слой 1"><path class="cls-1" d="M280.17,286.43c-79,0-143.21-64.24-143.21-143.21S201.2,0,280.17,0,423.39,64.25,423.39,143.22,359.14,286.43,280.17,286.43Zm0-261.78A118.57,118.57,0,1,0,398.74,143.22,118.7,118.7,0,0,0,280.17,24.65Z"/><path class="cls-1" d="M521.52,527.3H38.83c-11,0-21.08-5-28.47-14.17-8.91-11-12.36-26.32-9.23-40.94C7.8,441,21.62,411.69,42.18,385.07c20-25.89,45.43-48,75.56-65.71,30.64-18,66.86-15,94.54,7.8,20.16,16.62,43.64,25.41,67.89,25.41s47.74-8.79,67.9-25.41c27.67-22.82,63.9-25.81,94.54-7.8h0c30.13,17.71,55.55,39.82,75.55,65.71,20.57,26.62,34.38,55.93,41.06,87.12,3.12,14.62-.32,29.92-9.23,40.93C542.6,522.27,532.49,527.3,521.52,527.3ZM161,333.9a56.63,56.63,0,0,0-28.8,8.13C77.16,374.4,40.4,422.26,28.74,476.8c-1.51,7,.07,14.52,4.11,19.52,1.75,2.16,4.67,4.74,8.7,4.74H518.8c4,0,7-2.58,8.7-4.74,4-5,5.62-12.48,4.11-19.52C519.94,422.26,483.18,374.4,428.11,342h0c-21.31-12.53-45.57-10.49-64.9,5.44-24.47,20.18-53.18,30.84-83,30.84s-58.57-10.66-83-30.84C186.21,338.46,173.7,333.9,161,333.9Z"/></g></g></svg>