<svg xmlns="http://www.w3.org/2000/svg" viewBox="0 0 700.22 660.51"><defs><style>.cls-1,.cls-2{fill:gray;}.cls-2{stroke:gray;stroke-linecap:round;stroke-miterlimit:10;stroke-width:21px;}</style></defs><title>Ресурс 2</title><g id="Слой_2" data-name="Слой 2"><g id="Layer_1" data-name="Layer 1"><path class="cls-1" d="M493.88,25.3A25.36,25.36,0,0,0,468.56,0h0L25.28.61A25.32,25.32,0,0,0,0,26L.34,275.21a25.32,25.32,0,0,0,25.32,25.3h0l443.25-.61a25.36,25.36,0,0,0,25.28-25.36Zm-15.8-3.82L249.43,179.07,25.17,20.38h0V15.69l452.91-.62ZM460.37,284.29l-416.22.56-8.8-.38-16.48-13.2L18.55,38.79,240.89,192.45a13.09,13.09,0,0,0,14.94,0L477.74,38.17l.34,233.06Z"/><line class="cls-2" x1="23.09" y1="282.12" x2="127.73" y2="174.12"/><line class="cls-2" x1="472.03" y1="282.12" x2="367.39" y2="174.12"/></g></g></svg>