<svg xmlns="http://www.w3.org/2000/svg" xmlns:xlink="http://www.w3.org/1999/xlink" width="500" height="141" viewBox="0 0 500 141">
    <defs>
        <path id="a" d="M.545.747h4.617v4.616H.545z"/>
        <path id="c" d="M.424.747h5.454v4.616H.424z"/>
        <path id="e" d="M.05.747h5.454v4.616H.05z"/>
        <path id="g" d="M.22.747h5.455v4.616H.22z"/>
        <path id="i" d="M.545.341h4.617v5.455H.545z"/>
        <path id="k" d="M.545.48h4.617v5.455H.545z"/>
        <path id="m" d="M.545.267h4.617v5.455H.545z"/>
        <path id="o" d="M.545.154h4.617v5.454H.545z"/>
        <path id="q" d="M.545.838h4.617v4.617H.545z"/>
        <path id="s" d="M.424.838h5.454v4.617H.424z"/>
        <path id="u" d="M.05.838h5.454v4.617H.05z"/>
        <path id="w" d="M.22.838h5.455v4.617H.22z"/>
        <path id="y" d="M.392.747h5.454v4.616H.392z"/>
        <path id="A" d="M.02.747h5.454v4.616H.02z"/>
        <path id="C" d="M.19.747h5.455v4.616H.191z"/>
        <path id="E" d="M.362.747h5.454v4.616H.362z"/>
        <path id="G" d="M.392.838h5.454v4.617H.392z"/>
        <path id="I" d="M.02.838h5.454v4.617H.02z"/>
        <path id="K" d="M.19.838h5.455v4.617H.191z"/>
        <path id="M" d="M.362.838h5.454v4.617H.362z"/>
        <path id="O" d="M.533.747h5.454v4.616H.533z"/>
        <path id="Q" d="M.158.747h5.455v4.616H.158z"/>
        <path id="S" d="M.33.747h5.454v4.616H.329z"/>
        <path id="U" d="M.5.747h5.455v4.616H.5z"/>
        <path id="W" d="M.533.838h5.454v4.617H.533z"/>
        <path id="Y" d="M.158.838h5.455v4.617H.158z"/>
        <path id="aa" d="M.33.838h5.454v4.617H.329z"/>
        <path id="ac" d="M.5.838h5.455v4.617H.5z"/>
        <path id="ae" d="M.125.747H5.58v4.616H.125z"/>
        <path id="ag" d="M.297.747H5.75v4.616H.297z"/>
        <path id="ai" d="M.47.747h5.455v4.616H.47z"/>
        <path id="ak" d="M.096.747h5.455v4.616H.096z"/>
        <path id="am" d="M.125.838H5.58v4.617H.125z"/>
        <path id="ao" d="M.297.838H5.75v4.617H.297z"/>
        <path id="aq" d="M.47.838h5.455v4.617H.47z"/>
        <path id="as" d="M.096.838h5.455v4.617H.096z"/>
    </defs>
    <g fill="none" fill-rule="evenodd">
        <g>
            <mask id="b" fill="#fff">
                <use xlink:href="#a"/>
            </mask>
            <path fill="#FFF" d="M4.325 2.639a1.89 1.89 0 0 1-1.893 1.887A1.888 1.888 0 0 1 .545 2.64c0-1.042.845-1.893 1.887-1.893 1.047 0 1.893.851 1.893 1.893" mask="url(#b)"/>
        </g>
        <g transform="translate(32)">
            <mask id="d" fill="#fff">
                <use xlink:href="#c"/>
            </mask>
            <path fill="#FFF" d="M5.041 2.639a1.888 1.888 0 0 1-1.887 1.887 1.89 1.89 0 1 1 0-3.78c1.042 0 1.887.851 1.887 1.893" mask="url(#d)"/>
        </g>
        <g transform="translate(65)">
            <mask id="f" fill="#fff">
                <use xlink:href="#e"/>
            </mask>
            <path fill="#FFF" d="M4.667 2.639A1.888 1.888 0 0 1 2.78 4.526a1.89 1.89 0 1 1 0-3.78c1.041 0 1.887.851 1.887 1.893" mask="url(#f)"/>
        </g>
        <g transform="translate(98)">
            <mask id="h" fill="#fff">
                <use xlink:href="#g"/>
            </mask>
            <path fill="#FFF" d="M4.838 2.639A1.888 1.888 0 0 1 2.95 4.526a1.89 1.89 0 1 1 0-3.78c1.042 0 1.888.851 1.888 1.893" mask="url(#h)"/>
        </g>
        <g transform="translate(0 28)">
            <mask id="j" fill="#fff">
                <use xlink:href="#i"/>
            </mask>
            <path fill="#FFF" d="M4.325 3.071A1.89 1.89 0 0 1 2.432 4.96 1.888 1.888 0 0 1 .545 3.07c0-1.041.845-1.892 1.887-1.892 1.047 0 1.893.85 1.893 1.892" mask="url(#j)"/>
        </g>
        <path fill="#FFF" d="M38.079 30.003c0 1.146-.93 2.076-2.076 2.076a2.078 2.078 0 1 1 0-4.158c1.146 0 2.076.936 2.076 2.082M71.079 30.003c0 1.146-.93 2.076-2.076 2.076a2.078 2.078 0 1 1 0-4.158c1.146 0 2.076.936 2.076 2.082M104.079 30.003c0 1.146-.93 2.076-2.076 2.076a2.078 2.078 0 1 1 0-4.158c1.146 0 2.076.936 2.076 2.082"/>
        <g transform="translate(0 55)">
            <mask id="l" fill="#fff">
                <use xlink:href="#k"/>
            </mask>
            <path fill="#FFF" d="M4.325 3.208A1.894 1.894 0 0 1 2.432 5.1a1.893 1.893 0 0 1 0-3.786c1.047 0 1.893.851 1.893 1.893" mask="url(#l)"/>
        </g>
        <path fill="#FFF" d="M38.079 58c0 1.146-.93 2.082-2.076 2.082a2.083 2.083 0 0 1 0-4.164c1.146 0 2.076.936 2.076 2.082M71.079 58c0 1.146-.93 2.082-2.076 2.082a2.083 2.083 0 0 1 0-4.164c1.146 0 2.076.936 2.076 2.082M104.079 58c0 1.146-.93 2.082-2.076 2.082a2.083 2.083 0 0 1 0-4.164c1.146 0 2.076.936 2.076 2.082"/>
        <g transform="translate(0 80)">
            <mask id="n" fill="#fff">
                <use xlink:href="#m"/>
            </mask>
            <path fill="#FFF" d="M4.325 2.997a1.89 1.89 0 0 1-1.893 1.888A1.888 1.888 0 0 1 .545 2.997c0-1.042.845-1.892 1.887-1.892 1.047 0 1.893.85 1.893 1.892" mask="url(#n)"/>
        </g>
        <path fill="#FFF" d="M38.079 83.003c0 1.146-.93 2.076-2.076 2.076a2.078 2.078 0 1 1 0-4.158c1.146 0 2.076.936 2.076 2.082M71.079 83.003c0 1.146-.93 2.076-2.076 2.076a2.078 2.078 0 1 1 0-4.158c1.146 0 2.076.936 2.076 2.082M104.079 83.003c0 1.146-.93 2.076-2.076 2.076a2.078 2.078 0 1 1 0-4.158c1.146 0 2.076.936 2.076 2.082"/>
        <g transform="translate(0 108)">
            <mask id="p" fill="#fff">
                <use xlink:href="#o"/>
            </mask>
            <path fill="#FFF" d="M4.325 2.884A1.89 1.89 0 0 1 2.432 4.77 1.888 1.888 0 0 1 .545 2.884C.545 1.842 1.39.99 2.432.99c1.047 0 1.893.851 1.893 1.893" mask="url(#p)"/>
        </g>
        <path fill="#FFF" d="M38.079 111.003c0 1.146-.93 2.076-2.076 2.076a2.078 2.078 0 1 1 0-4.158c1.146 0 2.076.936 2.076 2.082M71.079 111.003c0 1.146-.93 2.076-2.076 2.076a2.078 2.078 0 1 1 0-4.158c1.146 0 2.076.936 2.076 2.082M104.079 111.003c0 1.146-.93 2.076-2.076 2.076a2.078 2.078 0 1 1 0-4.158c1.146 0 2.076.936 2.076 2.082"/>
        <g transform="translate(0 135)">
            <mask id="r" fill="#fff">
                <use xlink:href="#q"/>
            </mask>
            <path fill="#FFF" d="M4.325 3.566a1.894 1.894 0 0 1-1.893 1.892 1.893 1.893 0 0 1 0-3.785c1.047 0 1.893.85 1.893 1.893" mask="url(#r)"/>
        </g>
        <g transform="translate(32 135)">
            <mask id="t" fill="#fff">
                <use xlink:href="#s"/>
            </mask>
            <path fill="#FFF" d="M5.041 3.566a1.893 1.893 0 0 1-1.887 1.892 1.894 1.894 0 0 1 0-3.785c1.042 0 1.887.85 1.887 1.893" mask="url(#t)"/>
        </g>
        <g transform="translate(65 135)">
            <mask id="v" fill="#fff">
                <use xlink:href="#u"/>
            </mask>
            <path fill="#FFF" d="M4.667 3.566A1.893 1.893 0 0 1 2.78 5.458a1.894 1.894 0 0 1 0-3.785c1.041 0 1.887.85 1.887 1.893" mask="url(#v)"/>
        </g>
        <g transform="translate(98 135)">
            <mask id="x" fill="#fff">
                <use xlink:href="#w"/>
            </mask>
            <path fill="#FFF" d="M4.838 3.566A1.893 1.893 0 0 1 2.95 5.458a1.894 1.894 0 0 1 0-3.785c1.042 0 1.888.85 1.888 1.893" mask="url(#x)"/>
        </g>
        <g transform="translate(131)">
            <mask id="z" fill="#fff">
                <use xlink:href="#y"/>
            </mask>
            <path fill="#FFF" d="M5.009 2.639a1.888 1.888 0 0 1-1.887 1.887 1.89 1.89 0 1 1 0-3.78c1.041 0 1.887.851 1.887 1.893" mask="url(#z)"/>
        </g>
        <g transform="translate(164)">
            <mask id="B" fill="#fff">
                <use xlink:href="#A"/>
            </mask>
            <path fill="#FFF" d="M4.634 2.639a1.888 1.888 0 0 1-3.774 0A1.89 1.89 0 0 1 2.747.746c1.042 0 1.887.851 1.887 1.893" mask="url(#B)"/>
        </g>
        <g transform="translate(197)">
            <mask id="D" fill="#fff">
                <use xlink:href="#C"/>
            </mask>
            <path fill="#FFF" d="M4.808 2.639a1.89 1.89 0 0 1-1.893 1.887A1.888 1.888 0 0 1 1.028 2.64c0-1.042.846-1.893 1.887-1.893 1.048 0 1.893.851 1.893 1.893" mask="url(#D)"/>
        </g>
        <g transform="translate(230)">
            <mask id="F" fill="#fff">
                <use xlink:href="#E"/>
            </mask>
            <path fill="#FFF" d="M4.979 2.639a1.89 1.89 0 0 1-1.893 1.887A1.888 1.888 0 0 1 1.2 2.64c0-1.042.845-1.893 1.887-1.893 1.047 0 1.893.851 1.893 1.893" mask="url(#F)"/>
        </g>
        <path fill="#FFF" d="M137.079 30.003c0 1.146-.93 2.076-2.076 2.076a2.078 2.078 0 1 1 0-4.158c1.146 0 2.076.936 2.076 2.082M169.076 30.003a2.077 2.077 0 0 1-4.152 0c0-1.146.924-2.082 2.076-2.082 1.146 0 2.076.936 2.076 2.082M203.079 30.003c0 1.146-.93 2.076-2.082 2.076a2.077 2.077 0 0 1-2.076-2.076c0-1.146.93-2.082 2.076-2.082 1.152 0 2.082.936 2.082 2.082M235.079 30.003c0 1.146-.93 2.076-2.082 2.076a2.077 2.077 0 0 1-2.076-2.076c0-1.146.93-2.082 2.076-2.082 1.152 0 2.082.936 2.082 2.082M137.079 58c0 1.146-.93 2.082-2.076 2.082a2.083 2.083 0 0 1 0-4.164c1.146 0 2.076.936 2.076 2.082M169.076 58c0 1.146-.93 2.082-2.076 2.082A2.078 2.078 0 0 1 164.924 58c0-1.146.924-2.082 2.076-2.082 1.146 0 2.076.936 2.076 2.082M203.079 58c0 1.146-.93 2.082-2.082 2.082a2.082 2.082 0 0 1 0-4.164c1.152 0 2.082.936 2.082 2.082M235.079 58c0 1.146-.93 2.082-2.082 2.082a2.082 2.082 0 0 1 0-4.164c1.152 0 2.082.936 2.082 2.082M137.079 83.003c0 1.146-.93 2.076-2.076 2.076a2.078 2.078 0 1 1 0-4.158c1.146 0 2.076.936 2.076 2.082M169.076 83.003a2.077 2.077 0 0 1-4.152 0c0-1.146.924-2.082 2.076-2.082 1.146 0 2.076.936 2.076 2.082M203.079 83.003c0 1.146-.93 2.076-2.082 2.076a2.077 2.077 0 0 1-2.076-2.076c0-1.146.93-2.082 2.076-2.082 1.152 0 2.082.936 2.082 2.082M235.079 83.003c0 1.146-.93 2.076-2.082 2.076a2.077 2.077 0 0 1-2.076-2.076c0-1.146.93-2.082 2.076-2.082 1.152 0 2.082.936 2.082 2.082M137.079 111.003c0 1.146-.93 2.076-2.076 2.076a2.078 2.078 0 1 1 0-4.158c1.146 0 2.076.936 2.076 2.082M169.076 111.003a2.077 2.077 0 0 1-4.152 0c0-1.146.924-2.082 2.076-2.082 1.146 0 2.076.936 2.076 2.082M203.079 111.003c0 1.146-.93 2.076-2.082 2.076a2.077 2.077 0 0 1-2.076-2.076c0-1.146.93-2.082 2.076-2.082 1.152 0 2.082.936 2.082 2.082M235.079 111.003c0 1.146-.93 2.076-2.082 2.076a2.077 2.077 0 0 1-2.076-2.076c0-1.146.93-2.082 2.076-2.082 1.152 0 2.082.936 2.082 2.082"/>
        <g transform="translate(131 135)">
            <mask id="H" fill="#fff">
                <use xlink:href="#G"/>
            </mask>
            <path fill="#FFF" d="M5.009 3.566a1.893 1.893 0 0 1-1.887 1.892 1.894 1.894 0 0 1 0-3.785c1.041 0 1.887.85 1.887 1.893" mask="url(#H)"/>
        </g>
        <g transform="translate(164 135)">
            <mask id="J" fill="#fff">
                <use xlink:href="#I"/>
            </mask>
            <path fill="#FFF" d="M4.634 3.566a1.893 1.893 0 0 1-1.887 1.892A1.89 1.89 0 0 1 .86 3.566a1.89 1.89 0 0 1 1.887-1.893c1.042 0 1.887.85 1.887 1.893" mask="url(#J)"/>
        </g>
        <g transform="translate(197 135)">
            <mask id="L" fill="#fff">
                <use xlink:href="#K"/>
            </mask>
            <path fill="#FFF" d="M4.808 3.566a1.894 1.894 0 0 1-1.893 1.892 1.893 1.893 0 0 1 0-3.785c1.048 0 1.893.85 1.893 1.893" mask="url(#L)"/>
        </g>
        <g transform="translate(230 135)">
            <mask id="N" fill="#fff">
                <use xlink:href="#M"/>
            </mask>
            <path fill="#FFF" d="M4.979 3.566a1.894 1.894 0 0 1-1.893 1.892 1.893 1.893 0 0 1 0-3.785c1.047 0 1.893.85 1.893 1.893" mask="url(#N)"/>
        </g>
        <g transform="translate(263)">
            <mask id="P" fill="#fff">
                <use xlink:href="#O"/>
            </mask>
            <path fill="#FFF" d="M5.15 2.639a1.89 1.89 0 0 1-1.893 1.887A1.888 1.888 0 0 1 1.37 2.64c0-1.042.846-1.893 1.887-1.893 1.048 0 1.893.851 1.893 1.893" mask="url(#P)"/>
        </g>
        <g transform="translate(297)">
            <mask id="R" fill="#fff">
                <use xlink:href="#Q"/>
            </mask>
            <path fill="#FFF" d="M4.775 2.639a1.89 1.89 0 0 1-1.892 1.887A1.888 1.888 0 0 1 .995 2.64c0-1.042.846-1.893 1.888-1.893 1.047 0 1.892.851 1.892 1.893" mask="url(#R)"/>
        </g>
        <g transform="translate(330)">
            <mask id="T" fill="#fff">
                <use xlink:href="#S"/>
            </mask>
            <path fill="#FFF" d="M4.947 2.639a1.888 1.888 0 0 1-1.888 1.887 1.89 1.89 0 1 1 0-3.78c1.042 0 1.888.851 1.888 1.893" mask="url(#T)"/>
        </g>
        <g transform="translate(363)">
            <mask id="V" fill="#fff">
                <use xlink:href="#U"/>
            </mask>
            <path fill="#FFF" d="M5.117 2.639A1.888 1.888 0 0 1 3.23 4.526a1.89 1.89 0 1 1 0-3.78c1.042 0 1.887.851 1.887 1.893" mask="url(#V)"/>
        </g>
        <path fill="#FFF" d="M268.079 30.003c0 1.146-.93 2.076-2.082 2.076a2.077 2.077 0 0 1-2.076-2.076c0-1.146.93-2.082 2.076-2.082 1.152 0 2.082.936 2.082 2.082M302.079 30.003c0 1.146-.93 2.076-2.082 2.076a2.077 2.077 0 0 1-2.076-2.076c0-1.146.93-2.082 2.076-2.082 1.152 0 2.082.936 2.082 2.082M334.079 30.003c0 1.146-.93 2.076-2.076 2.076a2.078 2.078 0 1 1 0-4.158c1.146 0 2.076.936 2.076 2.082M368.079 30.003c0 1.146-.93 2.076-2.076 2.076a2.078 2.078 0 1 1 0-4.158c1.146 0 2.076.936 2.076 2.082M268.079 58c0 1.146-.93 2.082-2.082 2.082a2.082 2.082 0 0 1 0-4.164c1.152 0 2.082.936 2.082 2.082M302.079 58c0 1.146-.93 2.082-2.082 2.082a2.082 2.082 0 0 1 0-4.164c1.152 0 2.082.936 2.082 2.082M334.079 58c0 1.146-.93 2.082-2.076 2.082a2.083 2.083 0 0 1 0-4.164c1.146 0 2.076.936 2.076 2.082M368.079 58c0 1.146-.93 2.082-2.076 2.082a2.083 2.083 0 0 1 0-4.164c1.146 0 2.076.936 2.076 2.082M268.079 83.003c0 1.146-.93 2.076-2.082 2.076a2.077 2.077 0 0 1-2.076-2.076c0-1.146.93-2.082 2.076-2.082 1.152 0 2.082.936 2.082 2.082M302.079 83.003c0 1.146-.93 2.076-2.082 2.076a2.077 2.077 0 0 1-2.076-2.076c0-1.146.93-2.082 2.076-2.082 1.152 0 2.082.936 2.082 2.082M334.079 83.003c0 1.146-.93 2.076-2.076 2.076a2.078 2.078 0 1 1 0-4.158c1.146 0 2.076.936 2.076 2.082M368.079 83.003c0 1.146-.93 2.076-2.076 2.076a2.078 2.078 0 1 1 0-4.158c1.146 0 2.076.936 2.076 2.082M268.079 111.003c0 1.146-.93 2.076-2.082 2.076a2.077 2.077 0 0 1-2.076-2.076c0-1.146.93-2.082 2.076-2.082 1.152 0 2.082.936 2.082 2.082M302.079 111.003c0 1.146-.93 2.076-2.082 2.076a2.077 2.077 0 0 1-2.076-2.076c0-1.146.93-2.082 2.076-2.082 1.152 0 2.082.936 2.082 2.082M334.079 111.003c0 1.146-.93 2.076-2.076 2.076a2.078 2.078 0 1 1 0-4.158c1.146 0 2.076.936 2.076 2.082M368.079 111.003c0 1.146-.93 2.076-2.076 2.076a2.078 2.078 0 1 1 0-4.158c1.146 0 2.076.936 2.076 2.082"/>
        <g transform="translate(263 135)">
            <mask id="X" fill="#fff">
                <use xlink:href="#W"/>
            </mask>
            <path fill="#FFF" d="M5.15 3.566a1.894 1.894 0 0 1-1.893 1.892 1.893 1.893 0 0 1 0-3.785c1.048 0 1.893.85 1.893 1.893" mask="url(#X)"/>
        </g>
        <g transform="translate(297 135)">
            <mask id="Z" fill="#fff">
                <use xlink:href="#Y"/>
            </mask>
            <path fill="#FFF" d="M4.775 3.566a1.894 1.894 0 0 1-1.892 1.892 1.893 1.893 0 0 1 0-3.785c1.047 0 1.892.85 1.892 1.893" mask="url(#Z)"/>
        </g>
        <g transform="translate(330 135)">
            <mask id="ab" fill="#fff">
                <use xlink:href="#aa"/>
            </mask>
            <path fill="#FFF" d="M4.947 3.566a1.893 1.893 0 0 1-1.888 1.892 1.894 1.894 0 0 1 0-3.785c1.042 0 1.888.85 1.888 1.893" mask="url(#ab)"/>
        </g>
        <g transform="translate(363 135)">
            <mask id="ad" fill="#fff">
                <use xlink:href="#ac"/>
            </mask>
            <path fill="#FFF" d="M5.117 3.566A1.893 1.893 0 0 1 3.23 5.458a1.894 1.894 0 0 1 0-3.785c1.042 0 1.887.85 1.887 1.893" mask="url(#ad)"/>
        </g>
        <g transform="translate(396)">
            <mask id="af" fill="#fff">
                <use xlink:href="#ae"/>
            </mask>
            <path fill="#FFF" d="M4.743 2.639a1.888 1.888 0 0 1-1.888 1.887 1.89 1.89 0 1 1 0-3.78c1.042 0 1.888.851 1.888 1.893" mask="url(#af)"/>
        </g>
        <g transform="translate(429)">
            <mask id="ah" fill="#fff">
                <use xlink:href="#ag"/>
            </mask>
            <path fill="#FFF" d="M4.914 2.639a1.888 1.888 0 0 1-1.887 1.887 1.89 1.89 0 1 1 0-3.78c1.042 0 1.887.851 1.887 1.893" mask="url(#ah)"/>
        </g>
        <g transform="translate(462)">
            <mask id="aj" fill="#fff">
                <use xlink:href="#ai"/>
            </mask>
            <path fill="#FFF" d="M5.085 2.639a1.888 1.888 0 0 1-3.775 0A1.89 1.89 0 0 1 3.197.746c1.042 0 1.888.851 1.888 1.893" mask="url(#aj)"/>
        </g>
        <g transform="translate(495)">
            <mask id="al" fill="#fff">
                <use xlink:href="#ak"/>
            </mask>
            <path fill="#FFF" d="M4.713 2.639a1.89 1.89 0 0 1-1.892 1.887A1.888 1.888 0 0 1 .933 2.64c0-1.042.846-1.893 1.888-1.893 1.047 0 1.892.851 1.892 1.893" mask="url(#al)"/>
        </g>
        <path fill="#FFF" d="M400.079 30.003c0 1.146-.93 2.076-2.076 2.076a2.078 2.078 0 1 1 0-4.158c1.146 0 2.076.936 2.076 2.082M433.079 30.003c0 1.146-.93 2.076-2.076 2.076a2.078 2.078 0 1 1 0-4.158c1.146 0 2.076.936 2.076 2.082M466.076 30.003a2.077 2.077 0 0 1-4.152 0c0-1.146.924-2.082 2.076-2.082 1.146 0 2.076.936 2.076 2.082M499.079 30.003c0 1.146-.93 2.076-2.082 2.076a2.077 2.077 0 0 1-2.076-2.076c0-1.146.93-2.082 2.076-2.082 1.152 0 2.082.936 2.082 2.082M400.079 58c0 1.146-.93 2.082-2.076 2.082a2.083 2.083 0 0 1 0-4.164c1.146 0 2.076.936 2.076 2.082M433.079 58c0 1.146-.93 2.082-2.076 2.082a2.083 2.083 0 0 1 0-4.164c1.146 0 2.076.936 2.076 2.082M466.076 58c0 1.146-.93 2.082-2.076 2.082A2.078 2.078 0 0 1 461.924 58c0-1.146.924-2.082 2.076-2.082 1.146 0 2.076.936 2.076 2.082M499.079 58c0 1.146-.93 2.082-2.082 2.082a2.082 2.082 0 0 1 0-4.164c1.152 0 2.082.936 2.082 2.082M400.079 83.003c0 1.146-.93 2.076-2.076 2.076a2.078 2.078 0 1 1 0-4.158c1.146 0 2.076.936 2.076 2.082M433.079 83.003c0 1.146-.93 2.076-2.076 2.076a2.078 2.078 0 1 1 0-4.158c1.146 0 2.076.936 2.076 2.082M466.076 83.003a2.077 2.077 0 0 1-4.152 0c0-1.146.924-2.082 2.076-2.082 1.146 0 2.076.936 2.076 2.082M499.079 83.003c0 1.146-.93 2.076-2.082 2.076a2.077 2.077 0 0 1-2.076-2.076c0-1.146.93-2.082 2.076-2.082 1.152 0 2.082.936 2.082 2.082M400.079 111.003c0 1.146-.93 2.076-2.076 2.076a2.078 2.078 0 1 1 0-4.158c1.146 0 2.076.936 2.076 2.082M433.079 111.003c0 1.146-.93 2.076-2.076 2.076a2.078 2.078 0 1 1 0-4.158c1.146 0 2.076.936 2.076 2.082M466.076 111.003a2.077 2.077 0 0 1-4.152 0c0-1.146.924-2.082 2.076-2.082 1.146 0 2.076.936 2.076 2.082M499.079 111.003c0 1.146-.93 2.076-2.082 2.076a2.077 2.077 0 0 1-2.076-2.076c0-1.146.93-2.082 2.076-2.082 1.152 0 2.082.936 2.082 2.082"/>
        <g transform="translate(396 135)">
            <mask id="an" fill="#fff">
                <use xlink:href="#am"/>
            </mask>
            <path fill="#FFF" d="M4.743 3.566a1.893 1.893 0 0 1-1.888 1.892 1.894 1.894 0 0 1 0-3.785c1.042 0 1.888.85 1.888 1.893" mask="url(#an)"/>
        </g>
        <g transform="translate(429 135)">
            <mask id="ap" fill="#fff">
                <use xlink:href="#ao"/>
            </mask>
            <path fill="#FFF" d="M4.914 3.566a1.893 1.893 0 0 1-1.887 1.892 1.894 1.894 0 0 1 0-3.785c1.042 0 1.887.85 1.887 1.893" mask="url(#ap)"/>
        </g>
        <g transform="translate(462 135)">
            <mask id="ar" fill="#fff">
                <use xlink:href="#aq"/>
            </mask>
            <path fill="#FFF" d="M5.085 3.566a1.893 1.893 0 0 1-1.888 1.892A1.89 1.89 0 0 1 1.31 3.566a1.89 1.89 0 0 1 1.887-1.893c1.042 0 1.888.85 1.888 1.893" mask="url(#ar)"/>
        </g>
        <g transform="translate(495 135)">
            <mask id="at" fill="#fff">
                <use xlink:href="#as"/>
            </mask>
            <path fill="#FFF" d="M4.713 3.566a1.894 1.894 0 0 1-1.892 1.892 1.893 1.893 0 0 1 0-3.785c1.047 0 1.892.85 1.892 1.893" mask="url(#at)"/>
        </g>
    </g>
</svg>
