<svg xmlns="http://www.w3.org/2000/svg" width="48" height="48" viewBox="0 0 48 48">
    <g fill="none" fill-rule="evenodd">
        <g>
            <circle cx="24" cy="24" r="24" fill="#FFF"/>
            <g fill="#E24F3B">
                <path d="M16.205 18.803c0-4.252 3.497-7.71 7.795-7.71s7.795 3.458 7.795 7.71c0 4.251-3.497 7.71-7.795 7.71s-7.795-3.459-7.795-7.71zm13.846 7.757c2.346-1.794 3.86-4.604 3.86-7.757C33.91 13.398 29.464 9 24 9s-9.91 4.398-9.91 9.803c0 3.05 1.415 5.778 3.63 7.578L14 35.7l5.32-3.067 1.767 5.835 2.595-6.502-.995-3.448.005.001L26.689 42l2.294-5.653L34 39.88 30.051 26.56z"/>
                <path d="M24 25c3.309 0 6-2.691 6-6 0-3.308-2.691-6-6-6s-6 2.692-6 6c0 3.309 2.691 6 6 6"/>
            </g>
        </g>
    </g>
</svg>
