<svg xmlns="http://www.w3.org/2000/svg" xmlns:xlink="http://www.w3.org/1999/xlink" width="48" height="48" viewBox="0 0 48 48">
    <defs>
        <path id="a" d="M0 0h24v23H0z"/>
    </defs>
    <g fill="none" fill-rule="evenodd">
        <g>
            <circle cx="24" cy="24" r="24" fill="#FFF"/>
            <g transform="translate(12 11)">
                <mask id="b" fill="#fff">
                    <use xlink:href="#a"/>
                </mask>
                <path fill="#1325AA" d="M13.284.8l2.599 5.274c.208.423.611.716 1.077.784l5.813.846c1.174.17 1.643 1.616.793 2.445l-4.206 4.106c-.337.33-.49.803-.411 1.268l.993 5.798c.2 1.17-1.027 2.064-2.077 1.511l-5.199-2.737a1.431 1.431 0 0 0-1.332 0l-5.199 2.737c-1.05.553-2.277-.34-2.076-1.51l.993-5.799c.079-.465-.075-.939-.412-1.268L.434 10.149c-.85-.83-.38-2.274.793-2.445l5.813-.846a1.432 1.432 0 0 0 1.077-.784l2.6-5.275c.524-1.065 2.042-1.065 2.567 0" mask="url(#b)"/>
            </g>
        </g>
    </g>
</svg>
