<svg xmlns="http://www.w3.org/2000/svg" xmlns:xlink="http://www.w3.org/1999/xlink" width="48" height="48" viewBox="0 0 48 48">
    <defs>
        <path id="a" d="M0 .027h22.966V17H0z"/>
    </defs>
    <g fill="none" fill-rule="evenodd">
        <circle cx="24" cy="24" r="24" fill="#D6C3A2"/>
        <path fill="#1325AA" d="M24 18a5 5 0 1 1 0-10 5 5 0 0 1 0 10z"/>
        <g transform="translate(13 19)">
            <mask id="b" fill="#fff">
                <use xlink:href="#a"/>
            </mask>
            <path fill="#1325AA" d="M22.925 17c.025-.423.041-.849.041-1.28 0-5.089-1.774-11.042-4.523-13.908C16.512-.2 14.1.035 11.483.035c-2.616 0-5.029-.236-6.96 1.777C1.773 4.678 0 10.632 0 15.72c0 .431.016.857.041 1.28h22.884z" mask="url(#b)"/>
        </g>
    </g>
</svg>
