<svg xmlns="http://www.w3.org/2000/svg" xmlns:xlink="http://www.w3.org/1999/xlink" width="48" height="48" viewBox="0 0 48 48">
    <defs>
        <path id="a" d="M0 0h26v26H0z"/>
    </defs>
    <g fill="none" fill-rule="evenodd">
        <circle cx="24" cy="24" r="24" fill="#D6C3A2"/>
        <g transform="translate(12 8)">
            <mask id="b" fill="#fff">
                <use xlink:href="#a"/>
            </mask>
            <path fill="#E24F3B" d="M24.31 18.098c0 .01 1.69-.145 1.69-1.992s-1.31-1.983-1.31-1.983h-.898c.759 0 1.466-.812 1.466-1.864 0-2.192-2.19-2.215-2.19-2.215h-6.763s1.45-2.822 1.874-5.106c.448-2.417-.252-3.979-1.114-4.565-.798-.54-2.036-.452-2.658 0-.62.454-1.225 3.88-1.724 4.987-1.484 3.286-3.48 5.833-3.48 5.833v.255c0-.954-.714-1.735-1.585-1.735H1.585C.714 9.713 0 10.494 0 11.448v12.817C0 25.22.714 26 1.585 26h6.033c.871 0 1.585-.78 1.585-1.734v.397C9.878 25.9 11.026 26 11.026 26h10.282s2.565.098 2.565-2.111c0-1.815-1.047-1.832-1.047-1.832h.863s2.022-.137 2.022-1.96c0-1.651-1.022-1.997-1.022-1.997s-.38-.01-.38 0" mask="url(#b)"/>
        </g>
    </g>
</svg>
