<svg xmlns="http://www.w3.org/2000/svg" xmlns:xlink="http://www.w3.org/1999/xlink" width="212" height="190" viewBox="0 0 212 190">
    <defs>
        <path id="a" d="M0 191h211.53V.411H0z"/>
    </defs>
    <g fill="none" fill-rule="evenodd">
        <path fill="#D6C3A3" d="M171.05 77.746h-22.506c.284-.683.44-1.428.44-2.213 0-.66-.132-1.285-.336-1.874h22.402a2.043 2.043 0 0 1 0 4.087zM6.91 75.703c0-1.129.914-2.044 2.04-2.044h23.43a5.68 5.68 0 0 0-.286 1.704c0 .853.195 1.655.527 2.383H8.95a2.043 2.043 0 0 1-2.039-2.043zm22.865-42.235v33.258H16.551l13.225-33.258zm3.352-22.955h13.88v-3.58h-13.88v3.58zm101.08 0h13.88v-3.58h-13.88v3.58zm16.847 22.546l12.803 33.667h-12.803V33.059zM89.84 66.726l.239-.2.236.2h-.475zm47.988 6.933a5.749 5.749 0 0 0-.335 1.874c0 .785.159 1.53.442 2.213H43.063a5.75 5.75 0 0 0 .526-2.383 5.68 5.68 0 0 0-.285-1.704h94.524zM45.984 28.143l17.15 38.583h-17.15V28.143zM36.688 64.25h2.384V17.94h-2.384v46.31zm34.01 2.476L57.727 37.538l24.199 29.188H70.699zm39.13 0h-11.14l24.014-28.963-12.874 28.963zM141.76 65h2.384V18.69h-2.384V65zm-24.365 1.725l17.454-39.268v39.268h-17.454zm24.31 28.175h2.384v-9.013h-2.384V94.9zm-9.633 15.658h21.147v-8.667h-21.147v8.667zm-95.45-16.42h2.385v-8.355H36.62v8.355zm-8.9 16.928h21.145V102.4H27.72v8.667zm143.541-44.32l-19.122-50.28c1.714-1.1 2.86-3.013 2.86-5.2V6.179C155 2.773 152.235 0 148.84 0h-15.383c-3.397 0-6.16 2.773-6.16 6.18v5.087a6.19 6.19 0 0 0 3.692 5.656L90.307 65.989 49.759 17.084c2.412-.837 4.16-3.115 4.16-5.817V6.179C53.92 2.773 51.156 0 47.76 0H32.378c-3.397 0-6.16 2.773-6.16 6.18v5.087a6.169 6.169 0 0 0 2.877 5.209L9.109 66.726H8.95c-4.936 0-8.95 4.026-8.95 8.977 0 4.95 4.014 8.977 8.95 8.977H29.71v10.786h-2.742c-3.397 0-6.158 2.772-6.158 6.18v10.175c0 3.407 2.76 6.179 6.158 6.179h22.652c3.395 0 6.158-2.772 6.158-6.18v-10.174c0-3.408-2.763-6.18-6.158-6.18h-3.701V84.68h88.876v10.278h-3.477c-3.396 0-6.16 2.772-6.16 6.18v10.173c0 3.408 2.764 6.181 6.16 6.181h22.651c3.397 0 6.162-2.773 6.162-6.181v-10.173c0-3.408-2.765-6.18-6.162-6.18H151V84.68h20.05c4.934 0 8.95-4.027 8.95-8.977 0-4.878-3.902-8.84-8.738-8.957z"/>
        <path fill="#082F9B" d="M116 137h50V97h-50z"/>
        <g transform="translate(0 -1)">
            <path fill="#082F9B" d="M49.183 187.147S36.308 146.874 51.893 133c15.585-13.876 25.75-32.49 45.063-36.551 19.312-4.061 89.785-8.8 90.8-8.46 1.016.339 17.96 4.738 17.96 4.738s-13.215 7.105-13.215 8.122c0 1.016-1.017 25.72-1.017 25.72l-14.23 1.015-2.71-28.428s-18.974 3.046-18.636 4.74c.34 1.691 1.356 35.533 1.356 35.533s-18.296 1.692-17.618.677c.677-1.016.677-32.827-.678-32.49-1.355.34-9.825 0-13.554 5.755-3.726 5.753-22.02 23.689 4.745 51.78 26.766 28.087 13.553 21.657 12.536 21.657-1.016 0-93.512.34-93.512.34"/>
            <mask id="b" fill="#fff">
                <use xlink:href="#a"/>
            </mask>
            <path fill="#E24B3B" d="M179.343 111.303h8.809v-8.197h-8.81v8.197zm0 13.274h8.809v-5.49h-8.81v5.49zm-48.012-19.41c-13.488 6.471-21.442 20.804-18.614 35.615 3.205 16.79 15.989 30.826 28.757 42.343H52.448c-.317-.931-.642-1.856-.916-2.8-1.292-4.445-2.128-9.021-2.433-13.64-.966-14.555 3.21-28.788 12.325-40.261 16.889-21.258 40.69-28.487 66.236-31.632 22.761-2.802 45.796-2.98 68.705-1.992-7.872.73-15.73 1.669-23.55 2.781-13.536 1.925-29.017 3.605-41.484 9.586zm12.098 18.131h8.809v-13.085h-8.81v13.085zm0 13.575h8.809v-5.79h-8.81v5.79zm64.204-51.291c-26.323-1.536-52.88-1.81-79.106 1.321-11.109 1.325-22.586 2.916-33.222 6.558-29.765 10.193-54.503 37.121-54.144 69.51.095 8.763 1.64 17.953 5.221 26.009.785 1.764 2.267 2.248 3.676 1.928h101.785c3.174 0 5.406-4.393 2.753-6.644-17.164-14.578-53.248-49.935-23.049-70.221a34.256 34.256 0 0 1 4.089-2.329v29.05c0 1.141.416 2.011 1.042 2.632.039.047.084.088.125.132.026.024.049.05.076.072.622.633 1.498 1.055 2.653 1.055h16.602c2.106 0 3.897-1.781 3.897-3.892v-34.442c0-.3-.045-.591-.113-.873 1.63-.258 3.235-.512 4.79-.777 2.274-.39 4.56-.725 6.842-1.074v24.872c0 1.141.417 2.01 1.042 2.63.038.047.083.089.125.134.026.022.05.048.076.07.624.635 1.498 1.057 2.653 1.057h16.602c2.106 0 3.896-1.783 3.896-3.891v-27.872c3.895-.356 7.793-.669 11.69-.915 2.102-.131 3.896-1.674 3.896-3.892v-6.316c0-2.196-1.79-3.77-3.897-3.892z" mask="url(#b)"/>
            <path fill="#E24B3B" d="M86.482 155.654c-1.659-4.69-9.192-2.67-7.514 2.069 2.04 5.769 4.132 12.112 7.622 17.174 2.824 4.102 9.581.213 6.727-3.928-3.134-4.55-5.003-10.136-6.835-15.315M82.924 141.987c1.595-5.46 3.818-12.101 8.26-15.88 3.822-3.254-1.712-8.738-5.51-5.505-5.441 4.63-8.312 12.63-10.264 19.316-1.406 4.817 6.111 6.876 7.514 2.069M114.441 101.1c-6.412 1.56-12.587 4.867-18.323 8.065-4.38 2.439-.455 9.164 3.933 6.72 5.176-2.884 10.674-5.873 16.462-7.279 4.87-1.185 2.807-8.692-2.072-7.505" mask="url(#b)"/>
        </g>
    </g>
</svg>
