<svg xmlns="http://www.w3.org/2000/svg" xmlns:xlink="http://www.w3.org/1999/xlink" width="205" height="195" viewBox="0 0 205 195">
    <defs>
        <path id="a" d="M.203.31h76.193v146.868H.203z"/>
        <path id="c" d="M0 .741h139.078V195H0z"/>
        <path id="e" d="M0 195h204V1H0z"/>
    </defs>
    <g fill="none" fill-rule="evenodd">
        <g>
            <g transform="translate(128 25)">
                <mask id="b" fill="#fff">
                    <use xlink:href="#a"/>
                </mask>
                <path fill="#082F9B" d="M9.11 8.762c-.13 0-.24.044-.331.133a.46.46 0 0 0-.144.34c.08 19.817.439 108.856.517 129.074.24-.05.5-.106.778-.171a.477.477 0 0 0 .343-.344l3.245-11.827a8.925 8.925 0 0 1 4.714-5.675l8.784-4.261a8.969 8.969 0 0 1 7.874.05l10.629 5.329c.175.09.403.059.55-.085l6.908-6.682c.16-.157.192-.4.08-.594l-5.238-8.926a8.912 8.912 0 0 1-.675-7.641l3.793-10.234a8.88 8.88 0 0 1 5.601-5.385l11.09-3.613a.486.486 0 0 0 .336-.463V68.15c0-.213-.137-.4-.342-.463L55.735 64a8.897 8.897 0 0 1-5.623-5.172l-3.7-9.131a8.928 8.928 0 0 1 .376-7.534l5.226-9.919a.488.488 0 0 0-.082-.564l-7.518-7.783a.48.48 0 0 0-.58-.089l-8.474 4.633a8.856 8.856 0 0 1-7.752.383l-9.56-4.065a8.94 8.94 0 0 1-4.983-5.425L9.687 9.098a.478.478 0 0 0-.444-.332l-.114-.004h-.02zM6.308 147.178c-1.682 0-2.85-.384-3.828-1.164a4.63 4.63 0 0 1-1.748-3.628C.732 140.91.294 31.506.203 9.27a8.861 8.861 0 0 1 2.709-6.444 8.858 8.858 0 0 1 6.5-2.51l.094.005c3.746.128 7.026 2.592 8.19 6.128l3.377 10.234a.476.476 0 0 0 .272.298l9.556 4.063c.133.057.29.05.422-.021l8.474-4.633a8.924 8.924 0 0 1 10.678 1.63l7.515 7.784a8.931 8.931 0 0 1 1.48 10.386l-5.226 9.919a.497.497 0 0 0-.02.41l3.699 9.128a.49.49 0 0 0 .308.281l11.885 3.687a8.89 8.89 0 0 1 6.28 8.535v9.638c0 3.885-2.477 7.3-6.164 8.5l-11.086 3.61a.496.496 0 0 0-.304.296l-3.792 10.232a.48.48 0 0 0 .035.411l5.24 8.929a8.924 8.924 0 0 1-1.491 10.958l-6.906 6.68a8.918 8.918 0 0 1-10.18 1.566l-10.632-5.328a.49.49 0 0 0-.428-.002l-8.784 4.259a.492.492 0 0 0-.255.306l-3.247 11.833a8.906 8.906 0 0 1-6.598 6.34c-2.317.53-4.088.801-5.496.801z" mask="url(#b)"/>
            </g>
            <path fill="#082F9B" d="M132.999 74.364c-13.03 0-23.635 10.602-23.635 23.637 0 13.033 10.605 23.635 23.635 23.635 13.032 0 23.637-10.602 23.637-23.635 0-13.035-10.605-23.637-23.637-23.637m0 55.636C115.356 130 101 115.646 101 98.001S115.356 66 132.999 66C150.644 66 165 80.356 165 98.001 165 115.646 150.644 130 132.999 130"/>
            <path fill="#D6C3A3" d="M123.44 191H15.558C9.174 191 4 185.825 4 179.444V16.556C4 10.175 9.174 5 15.558 5H123.44C129.822 5 135 10.175 135 16.556v162.888c0 6.381-5.178 11.556-11.56 11.556"/>
            <g>
                <mask id="d" fill="#fff">
                    <use xlink:href="#c"/>
                </mask>
                <path fill="#E24B3B" d="M15.738 9.171c-4.036 0-7.321 3.288-7.321 7.33v162.74c0 4.042 3.285 7.33 7.321 7.33H123.34c4.037 0 7.32-3.288 7.32-7.33V16.5c0-4.042-3.283-7.33-7.32-7.33H15.738zm107.602 185.83H15.738c-8.679 0-15.74-7.071-15.74-15.76V16.5C-.001 7.81 7.06.741 15.739.741H123.34c8.68 0 15.738 7.069 15.738 15.76v162.74c0 8.689-7.059 15.76-15.738 15.76z" mask="url(#d)"/>
            </g>
            <mask id="f" fill="#fff">
                <use xlink:href="#e"/>
            </mask>
            <path fill="#D6C3A3" d="M57 153h24v-12H57z" mask="url(#f)"/>
            <path fill="#082F9B" d="M60.494 149.515h18.012V122.71l-18.012-.208v27.013zM80.005 158H58.997c-3.856 0-6.997-3.407-6.997-7.596v-28.808c0-2.142.832-4.193 2.28-5.625 1.292-1.273 2.963-1.971 4.715-1.971h.076l21.008.244c3.882.044 6.921 3.381 6.921 7.596v28.564c0 4.19-3.139 7.596-6.995 7.596z" mask="url(#f)"/>
            <path fill="#082F9B" d="M56 144h26v-8H56z" mask="url(#f)"/>
            <path fill="#D6C3A3" d="M95 101.501C95 116.137 83.359 128 69.001 128 54.639 128 43 116.137 43 101.501S54.64 75 69.001 75C83.359 75 95 86.865 95 101.501" mask="url(#f)"/>
            <path fill="#E24B3B" d="M69.5 79.424c-12.173 0-22.076 9.904-22.076 22.077 0 12.173 9.903 22.075 22.076 22.075s22.076-9.902 22.076-22.075S81.673 79.424 69.5 79.424m0 52.576C52.683 132 39 118.32 39 101.501 39 84.683 52.683 71 69.5 71S100 84.683 100 101.501 86.317 132 69.5 132M64 47.073v12.855c0 6.758 11 6.768 11 0V47.073c0-6.758-11-6.77-11 0M35.745 55.02c2.145 3.794 4.287 7.585 6.434 11.377 3.38 5.982 12.467.582 9.076-5.419-2.147-3.792-4.29-7.583-6.434-11.375-3.38-5.982-12.467-.582-9.076 5.417M94.178 50.604c-2.144 3.791-4.29 7.582-6.434 11.376-3.387 5.991 5.692 11.403 9.08 5.416l6.431-11.376c3.39-5.991-5.692-11.403-9.077-5.416" mask="url(#f)"/>
        </g>
    </g>
</svg>
