<svg xmlns="http://www.w3.org/2000/svg" xmlns:xlink="http://www.w3.org/1999/xlink" width="200" height="194" viewBox="0 0 200 194">
    <defs>
        <path id="a" d="M.91.267H139.26v145.927H.91z"/>
        <path id="c" d="M0 194h200V0H0z"/>
    </defs>
    <g fill="none" fill-rule="evenodd">
        <g>
            <g transform="translate(34)">
                <mask id="b" fill="#fff">
                    <use xlink:href="#a"/>
                </mask>
                <path fill="#082F9B" d="M89.048 146.194H16.412c-8.548 0-15.502-6.972-15.502-15.542V15.061C.91 6.904 7.53.266 15.667.266h108.092c8.547 0 15.502 6.972 15.502 15.542v89.509h-7.621v-89.51c0-4.355-3.537-7.9-7.881-7.9H15.667c-3.935 0-7.136 3.21-7.136 7.154v115.591c0 4.358 3.537 7.901 7.881 7.901h72.636v7.641z" mask="url(#b)"/>
            </g>
            <path fill="#082F9B" d="M59.648 22.595c-1.132 0-2.053.921-2.053 2.055v11.702c0 1.132.921 2.053 2.053 2.053H71.35c1.134 0 2.055-.921 2.055-2.053V24.65c0-1.134-.921-2.055-2.055-2.055H59.648zM71.35 46H59.648C54.328 46 50 41.67 50 36.352V24.65c0-5.32 4.327-9.65 9.648-9.65H71.35c5.32 0 9.65 4.33 9.65 9.65v11.702C81 41.671 76.67 46 71.35 46zM96.648 22.595c-1.132 0-2.053.921-2.053 2.055v11.702c0 1.132.921 2.053 2.053 2.053h11.702c1.134 0 2.055-.921 2.055-2.053V24.65c0-1.134-.921-2.055-2.055-2.055H96.648zM108.35 46H96.648C91.328 46 87 41.67 87 36.352V24.65c0-5.32 4.327-9.65 9.648-9.65h11.702c5.32 0 9.65 4.33 9.65 9.65v11.702c0 5.319-4.33 9.648-9.65 9.648z"/>
            <path fill="#D6C3A3" d="M147.25 42h-11.5c-3.175 0-5.75-2.687-5.75-6.001v-12c0-3.314 2.575-5.999 5.75-5.999h11.5c3.175 0 5.75 2.685 5.75 5.999v12c0 3.314-2.575 6.001-5.75 6.001"/>
            <path fill="#082F9B" d="M135.648 21.595c-1.132 0-2.053.921-2.053 2.055v11.702c0 1.132.921 2.053 2.053 2.053h11.702c1.134 0 2.055-.921 2.055-2.053V23.65c0-1.134-.921-2.055-2.055-2.055h-11.702zM147.35 45h-11.702c-5.32 0-9.648-4.33-9.648-9.648V23.65c0-5.32 4.327-9.65 9.648-9.65h11.702c5.32 0 9.65 4.33 9.65 9.65v11.702c0 5.319-4.33 9.648-9.65 9.648z"/>
            <mask id="d" fill="#fff">
                <use xlink:href="#c"/>
            </mask>
            <path fill="#082F9B" d="M61 106h8V53h-8zM99 106h8V53h-8zM138 109h8V53h-8z" mask="url(#d)"/>
            <path fill="#E24B3B" d="M111 111a8 8 0 1 1-16.001-.001A8 8 0 0 1 111 111" mask="url(#d)"/>
            <path fill="#082F9B" d="M103 106.775A4.23 4.23 0 0 0 98.775 111a4.23 4.23 0 0 0 4.225 4.225 4.23 4.23 0 0 0 4.225-4.225 4.23 4.23 0 0 0-4.225-4.225M103 123c-6.616 0-12-5.384-12-12s5.384-12 12-12 12 5.384 12 12-5.384 12-12 12" mask="url(#d)"/>
            <path fill="#E24B3B" d="M73 84a8 8 0 1 1-16.001-.001A8 8 0 0 1 73 84" mask="url(#d)"/>
            <path fill="#082F9B" d="M65 79.775A4.23 4.23 0 0 0 60.775 84 4.23 4.23 0 0 0 65 88.225 4.23 4.23 0 0 0 69.225 84 4.23 4.23 0 0 0 65 79.775M65 96c-6.616 0-12-5.384-12-12s5.384-12 12-12 12 5.384 12 12-5.384 12-12 12" mask="url(#d)"/>
            <path fill="#D6C3A3" d="M135.021 154.228c-.094-15.86.15-53.886.26-65.854A5.425 5.425 0 0 1 140.708 83h3.242a5.426 5.426 0 0 1 5.427 5.426v25.272a3.932 3.932 0 0 0 3.933 3.931h31.84c5.992 0 10.85 4.86 10.85 10.853v25.668c0 5.992-4.858 10.85-10.85 10.85h-39.276c-5.968 0-10.817-4.804-10.853-10.772" mask="url(#d)"/>
            <path fill="#082F9B" d="M138.604 154.321c.022 3.856 3.143 6.994 6.957 6.994h38.899c3.837 0 6.957-3.163 6.957-7.05V128.5c0-3.889-3.12-7.051-6.957-7.051h-31.534c-4.239 0-7.687-3.495-7.687-7.79v-25.37c0-.884-.71-1.603-1.581-1.603h-3.214c-.864 0-1.575.711-1.582 1.59-.109 11.877-.351 50.226-.258 66.046M184.46 169H145.56c-7.97 0-14.493-6.565-14.54-14.635-.093-15.872.15-54.267.258-66.164.047-5.074 4.159-9.201 9.165-9.201h3.214c5.052 0 9.164 4.167 9.164 9.288v25.37l31.638.104c8.019 0 14.54 6.612 14.54 14.737v25.766c0 8.126-6.521 14.735-14.54 14.735" mask="url(#d)"/>
            <path fill="#082F9B" d="M141.011 168.641c-1.895 0-3.437 1.555-3.437 3.467v8.784c0 1.912 1.542 3.467 3.437 3.467h47.978c1.895 0 3.437-1.555 3.437-3.467v-8.784c0-1.912-1.542-3.467-3.437-3.467H141.01zM188.99 192H141.01c-6.073 0-11.011-4.982-11.011-11.108v-8.784c0-6.124 4.938-11.108 11.011-11.108h47.978c6.073 0 11.011 4.984 11.011 11.108v8.784c0 6.126-4.938 11.108-11.011 11.108zM11.01 170.641c-1.896 0-3.435 1.555-3.435 3.467v8.784c0 1.912 1.54 3.467 3.435 3.467h47.979c1.895 0 3.436-1.555 3.436-3.467v-8.784c0-1.912-1.54-3.467-3.436-3.467h-47.98zM58.989 194h-47.98C4.94 194 0 189.018 0 182.892v-8.784C0 167.982 4.939 163 11.01 163h47.979C65.06 163 70 167.982 70 174.108v8.784C70 189.018 65.061 194 58.989 194z" mask="url(#d)"/>
            <path fill="#D6C3A3" d="M39.054 84c-.08 0-.529.065-1.25.221C25.604 86.871 17 97.904 17 110.471V165h34.287l26.665-27.86c2.499-2.61 3.626-6.324 2.758-9.84-.66-2.677-2.21-5.459-5.632-6.887-3.66-1.53-7.889-.58-10.852 2.07L51.41 133.95a8.011 8.011 0 0 1-9.44.926 5.972 5.972 0 0 1-2.916-5.138V84z" mask="url(#d)"/>
            <path fill="#082F9B" d="M20.623 161.337h29.061l25.699-26.803c1.658-1.726 2.355-4.14 1.82-6.297-.71-2.87-2.295-3.83-3.427-4.301-2.214-.924-4.934-.374-6.922 1.402L53.96 136.856a11.83 11.83 0 0 1-13.964 1.364c-2.968-1.757-4.809-4.999-4.809-8.46V88.814c-8.61 3.374-14.563 11.957-14.563 21.599v50.924zm32.3 7.663H13v-58.587c0-14.436 10.065-27.095 23.936-30.103C38.36 80 38.807 80 38.998 80h3.812v49.76c0 .76.404 1.471 1.054 1.858a4.266 4.266 0 0 0 5.033-.492l12.893-11.514c4.157-3.715 10.008-4.799 14.908-2.755 4.048 1.688 6.78 4.985 7.905 9.531 1.161 4.695-.268 9.855-3.731 13.464L52.922 169z" mask="url(#d)"/>
        </g>
    </g>
</svg>
