<svg color= "#fff" height="512" viewBox="0 0 192 192" width="512" xmlns="http://www.w3.org/2000/svg"><g id="_01-bottle" data-name="01-bottle"><path d="m167.924 136.411-47.924-43.93v-76.481h8v-16h-64v16h8v76.481l-47.924 43.93a32 32 0 0 0 21.624 55.589h100.6a32 32 0 0 0 21.623-55.589zm-63.924-120.411v40h-16v-40zm57.212 149.8a15.731 15.731 0 0 1 -14.912 10.2h-100.6a16 16 0 0 1 -10.811-27.794l50.517-46.306a8 8 0 0 0 2.594-5.9v-24h16v24a8 8 0 0 0 2.594 5.9l50.518 46.309a15.729 15.729 0 0 1 4.1 17.591z"/><circle cx="104" cy="128" r="8"/><circle cx="120" cy="160" r="8"/><circle cx="72" cy="152" r="8"/></g></svg>